<?xml version="1.0" encoding="UTF-8" standalone="no"?>
<svg width="64" height="64" viewBox="0 0 64 64" version="1.1" xmlns="http://www.w3.org/2000/svg">
  <g transform="translate(7, -2)">
    <path
       d="M 0,0 C 1.81,8.19 9.87,13.37 18.01,11.57 16.2,3.38 8.14,-1.79 0,0"
       style="fill:#a8dee5;fill-opacity:1;fill-rule:nonzero;stroke:none"
       transform="matrix(0.95,0,0,-0.95,16.5,58)" />
    <path
       d="M 0,0 C 5.57,-5.57 6.93,-19.22 0.05,-19.22 -6.56,-19.22 -5.54,-5.54 0,0"
       style="fill:#a8dee5;fill-opacity:1;fill-rule:nonzero;stroke:none"
       transform="matrix(0.95,0,0,-0.95,15.5,22)" />
    <path
       d="M 0,0 C -8.14,-1.8 -16.2,3.38 -18.01,11.56 -9.87,13.36 -1.81,8.18 0,0"
       style="fill:#a8dee5;fill-opacity:1;fill-rule:nonzero;stroke:none"
       transform="matrix(0.95,0,0,-0.95,15.8,53.5)" />
    <path
       d="M 0,0 C 5.763,-0.371 11.165,3.101 13.247,8.524 10.448,8.719 7.664,8.002 5.25,6.451 2.829,4.896 1.012,2.648 0,0 m 0.847,-3.726 c -1.197,0 -2.41,0.128 -3.625,0.396 l -1.808,0.397 0.399,1.808 c 0.982,4.44 3.623,8.236 7.437,10.688 3.819,2.453 8.357,3.262 12.778,2.288 l 1.805,-0.4 -0.399,-1.805 C 15.679,1.706 8.633,-3.726 0.847,-3.726"
       style="fill:#187283;fill-opacity:1;fill-rule:nonzero;stroke:none"
       transform="matrix(0.95,0,0,-0.95,18.8,55.5)" />
    <path
       d="M 0,0 C 2.084,-5.425 7.477,-8.878 13.245,-8.517 11.16,-3.093 5.765,0.376 0,0 m 12.384,-12.243 c -7.778,0 -14.815,5.426 -16.572,13.365 l -0.4,1.806 1.806,0.399 C 6.34,5.341 15.405,-0.474 17.433,-9.639 l 0.399,-1.805 -1.805,-0.4 c -1.221,-0.269 -2.441,-0.399 -3.643,-0.399"
       style="fill:#187283;fill-opacity:1;fill-rule:nonzero;stroke:none"
       transform="matrix(0.95,0,0,-0.95,1.3,42.5)" />
    <path
       d="m 0,0 c -2.563,-3.841 -3.371,-9.739 -2.12,-12.759 0.626,-1.51 1.485,-1.704 2.163,-1.704 0.728,0 1.644,0.193 2.267,1.699 C 3.541,-9.792 2.648,-3.889 0,0 m 0.043,-18.16 c -2.533,0 -4.514,1.415 -5.579,3.986 -2.133,5.15 -0.082,14.087 4.222,18.391 L -0.007,5.524 1.301,4.217 C 5.679,-0.161 7.83,-9.102 5.727,-14.18 4.663,-16.747 2.645,-18.16 0.043,-18.16"
       style="fill:#187283;fill-opacity:1;fill-rule:nonzero;stroke:none"
       transform="matrix(0.95,0,0,-0.95,15.7,25.5)" />
    <path
       d="m 0,0 v 3.805 c 7.895,0 15.511,3.309 20.897,9.08 5.459,5.848 8.16,13.49 7.605,21.516 -0.977,14.125 -12.358,25.506 -26.472,26.474 -8.034,0.554 -15.676,-2.148 -21.527,-7.609 -5.771,-5.387 -9.081,-13.002 -9.081,-20.894 0,-8.37 3.657,-16.292 10.033,-21.733 1.235,-1.06 2.723,-1.789 4.306,-2.114 1.138,-0.235 1.686,-0.26 1.869,-0.26 6.219,0 11.278,5.058 11.278,11.277 l -0.19,17.97 3.803,0.041 0.19,-17.991 C 2.711,11.226 -4.054,4.46 -12.37,4.46 c -0.663,0 -1.549,0.114 -2.636,0.34 -2.21,0.452 -4.291,1.471 -6.013,2.949 -7.22,6.162 -11.363,15.138 -11.363,24.623 0,8.942 3.75,17.571 10.289,23.674 6.631,6.188 15.291,9.254 24.384,8.624 C 18.289,63.573 31.189,50.673 32.297,34.663 32.925,25.573 29.864,16.917 23.678,10.29 17.576,3.751 8.945,0 0,0"
       style="fill:#187283;fill-opacity:1;fill-rule:nonzero;stroke:none"
       transform="matrix(0.95,0,0,-0.95,15.6,62)" />
  </g>
</svg>