<?xml version="1.0" encoding="UTF-8" standalone="no"?>
<svg
   width="300"
   height="80"
   viewBox="0 0 105.83 30"
   version="1.1"
   xmlns="http://www.w3.org/2000/svg">
  <g transform="translate(-5,-9)">
    <path
       d="m 36.959557,27.442787 -2.94349,-9.806119 h 2.24069 l 1.28571,4.254004 c 0.08785,0.292488 0.170532,0.599446 0.248047,0.921907 0.07958,0.322461 0.159163,0.726571 0.239778,1.211296 0.07958,-0.484725 0.159164,-0.885734 0.239779,-1.203027 0.07958,-0.319361 0.163297,-0.629419 0.252181,-0.930176 l 1.203027,-4.254004 H 42.1272 l 1.149284,4.254004 c 0.07958,0.300757 0.159163,0.614949 0.239778,0.942578 0.07958,0.325561 0.163298,0.722436 0.252181,1.190625 0.09612,-0.492993 0.183968,-0.897103 0.264583,-1.211296 0.07958,-0.314193 0.163298,-0.611849 0.252182,-0.892969 l 1.310514,-4.282942 h 2.186946 l -2.993099,9.806119 h -2.095996 l -1.785937,-6.44095 -1.843815,6.44095 z m 13.801741,0.173633 c -0.661459,0 -1.251604,-0.150895 -1.769401,-0.450618 -0.515731,-0.299724 -0.921908,-0.713135 -1.219564,-1.240235 -0.295589,-0.526066 -0.44235,-1.128613 -0.44235,-1.806608 0,-0.68833 0.142627,-1.296045 0.429948,-1.823144 0.289388,-0.526066 0.68833,-0.939477 1.198893,-1.240234 0.51263,-0.299724 1.100708,-0.450619 1.765267,-0.450619 0.696598,0 1.296044,0.144694 1.798339,0.434082 0.504362,0.287321 0.892969,0.693498 1.165821,1.219564 0.274918,0.523999 0.413411,1.14825 0.413411,1.872754 v 0.516764 l -5.69681,0.0248 0.0248,-1.256771 h 3.646289 c 0,-0.355534 -0.11989,-0.636654 -0.359668,-0.84336 -0.237712,-0.206706 -0.564307,-0.310058 -0.979785,-0.310058 -0.345199,0 -0.626319,0.06615 -0.84336,0.198437 -0.214973,0.132292 -0.376204,0.337964 -0.483691,0.615983 -0.10542,0.279053 -0.157096,0.634587 -0.157096,1.066602 0,0.61805 0.125057,1.07487 0.376204,1.372526 0.253215,0.295589 0.644922,0.44235 1.174089,0.44235 0.388607,0 0.711067,-0.06615 0.967383,-0.198437 0.256314,-0.132292 0.419612,-0.318327 0.491959,-0.558106 h 1.86862 c -0.115754,0.733806 -0.478523,1.318783 -1.087271,1.756999 -0.609782,0.438216 -1.370459,0.657324 -2.282031,0.657324 z m 6.58461,-0.173633 H 55.30779 v -9.992154 h 2.038118 z m 3.577043,0 h -2.038119 v -9.992154 h 2.038119 z m 1.064534,-2.091861 h 1.930631 c 0.0186,0.229443 0.112655,0.409277 0.28112,0.541568 0.167432,0.132292 0.406177,0.198438 0.715202,0.198438 0.31626,0 0.549837,-0.05168 0.698665,-0.157096 0.150896,-0.107487 0.227377,-0.244947 0.227377,-0.413412 0,-0.09612 -0.03721,-0.192236 -0.111621,-0.289388 -0.07442,-0.09612 -0.235645,-0.171566 -0.483692,-0.227376 l -1.219563,-0.264583 c -0.609782,-0.132292 -1.064535,-0.345199 -1.364258,-0.640788 -0.300757,-0.297656 -0.450619,-0.736906 -0.450619,-1.318783 0,-0.45992 0.120923,-0.851627 0.363803,-1.174088 0.241845,-0.322461 0.571541,-0.568441 0.988053,-0.740007 0.415478,-0.173632 0.888834,-0.260449 1.418001,-0.260449 0.51263,0 0.964282,0.09405 1.355989,0.28112 0.393775,0.185002 0.700733,0.445451 0.921908,0.781348 0.220142,0.333829 0.330729,0.72657 0.330729,1.178222 h -1.934766 c 0,-0.22841 -0.06614,-0.411344 -0.198437,-0.549837 -0.132292,-0.137459 -0.322461,-0.206706 -0.570508,-0.206706 -0.229443,0 -0.412377,0.05581 -0.549837,0.165365 -0.135392,0.110588 -0.202572,0.254248 -0.202572,0.429948 0,0.28422 0.237712,0.478523 0.715202,0.58291 l 1.231967,0.268717 c 0.54777,0.113688 0.965315,0.309025 1.252636,0.587045 0.286287,0.279052 0.429948,0.682128 0.429948,1.211295 0,0.469222 -0.124024,0.875399 -0.372071,1.219564 -0.248046,0.345198 -0.593245,0.607715 -1.033528,0.789616 -0.441317,0.181901 -0.948779,0.272851 -1.521354,0.272851 -0.876432,0 -1.570963,-0.208773 -2.083594,-0.628385 -0.510563,-0.42168 -0.764811,-0.967383 -0.764811,-1.637109 z m 6.834725,5.270995 v -9.806119 h 1.922362 l 0.103353,0.810286 c 0.187071,-0.307991 0.475425,-0.555004 0.86403,-0.740006 0.388606,-0.187069 0.815453,-0.28112 1.281575,-0.28112 0.62012,0 1.163754,0.138493 1.632976,0.413412 0.468189,0.272851 0.835092,0.664559 1.099676,1.174088 0.264583,0.507463 0.396875,1.118278 0.396875,1.831413 0,0.697632 -0.121959,1.318782 -0.363802,1.864485 -0.242881,0.543636 -0.59738,0.96945 -1.062468,1.277442 -0.463021,0.307991 -1.025261,0.463021 -1.686719,0.463021 -0.460953,0 -0.884699,-0.08062 -1.273309,-0.239779 -0.388606,-0.159164 -0.681094,-0.361735 -0.87643,-0.607715 v 3.840592 z m 2.054653,-6.490559 c 0,0.325561 0.06718,0.614949 0.202572,0.868164 0.13746,0.251147 0.327629,0.445451 0.570509,0.58291 0.241847,0.135392 0.522965,0.202572 0.843358,0.202572 0.324531,0 0.604615,-0.07028 0.839226,-0.21084 0.233578,-0.14056 0.414447,-0.334864 0.541571,-0.58291 0.12919,-0.248047 0.194302,-0.534335 0.194302,-0.859896 0,-0.327629 -0.06511,-0.613916 -0.194302,-0.859896 -0.127124,-0.248047 -0.307993,-0.44235 -0.541571,-0.58291 -0.234611,-0.142627 -0.514695,-0.214974 -0.839226,-0.214974 -0.320393,0 -0.601511,0.06925 -0.843358,0.206705 -0.24288,0.135393 -0.433049,0.326596 -0.570509,0.574643 -0.135392,0.248047 -0.202572,0.540535 -0.202572,0.876432 z m 10.980208,-3.31556 v 1.922363 h -0.649054 c -0.581876,0 -1.039732,0.142627 -1.372528,0.425814 -0.330729,0.28112 -0.496094,0.750342 -0.496094,1.405599 v 2.873209 h -2.038117 v -6.610449 h 1.922364 l 0.157095,1.418002 h -0.186034 c 0.08785,-0.443384 0.289387,-0.80822 0.603582,-1.09554 0.314191,-0.286288 0.740004,-0.429948 1.27744,-0.429948 0.124022,0 0.249079,0.0072 0.376206,0.02067 0.12919,0.01447 0.264583,0.03721 0.40514,0.07028 z m 1.035597,6.626985 v -6.626985 h 2.038117 v 6.626985 z m 1.004591,-7.65638 c -0.325564,0 -0.601514,-0.112654 -0.826823,-0.338997 -0.226346,-0.225309 -0.338998,-0.502295 -0.338998,-0.830957 0,-0.324528 0.112652,-0.597379 0.338998,-0.818554 0.225309,-0.220142 0.501259,-0.330729 0.826823,-0.330729 0.319359,0 0.591178,0.110587 0.814419,0.330729 0.225309,0.221175 0.338999,0.494026 0.338999,0.818554 0,0.328662 -0.11369,0.605648 -0.338999,0.830957 -0.223241,0.226343 -0.49506,0.338997 -0.814419,0.338997 z m 4.610569,7.65638 h -2.038117 v -6.626985 h 1.922364 l 0.132291,0.690397 c 0.200505,-0.28112 0.480589,-0.501261 0.839223,-0.661458 0.357604,-0.159164 0.753445,-0.239779 1.186491,-0.239779 0.785484,0 1.397331,0.241846 1.835548,0.72347 0.438217,0.482658 0.657324,1.156519 0.657324,2.021582 v 4.092773 H 91.0007 V 23.83784 c 0,-0.413412 -0.106454,-0.745174 -0.318329,-0.996322 -0.212905,-0.253214 -0.49506,-0.380338 -0.847492,-0.380338 -0.405144,0 -0.727604,0.121956 -0.967383,0.363802 -0.239776,0.242879 -0.359668,0.572574 -0.359668,0.988053 z m 5.659603,-3.431315 c 0,-0.671793 0.133325,-1.262971 0.40101,-1.773535 0.269751,-0.51263 0.645953,-0.914672 1.128613,-1.207161 0.481623,-0.291455 1.031462,-0.438216 1.649511,-0.438216 0.520898,0 0.968418,0.106453 1.343586,0.318327 0.374139,0.212907 0.633554,0.490926 0.777216,0.835091 l -0.198438,0.132291 0.157096,-1.062467 h 1.922365 v 6.201172 c 0,0.787548 -0.14676,1.465543 -0.43822,2.033984 -0.29249,0.570508 -0.709,1.006657 -1.248501,1.310514 -0.537435,0.305925 -1.185456,0.458887 -1.943032,0.458887 -1.016995,0 -1.843818,-0.271818 -2.480469,-0.814421 -0.634587,-0.543636 -1.000457,-1.283642 -1.099675,-2.220019 h 2.067055 c 0.01859,0.37207 0.161234,0.661458 0.425817,0.868164 0.264583,0.208773 0.622184,0.314193 1.074868,0.314193 0.492993,0 0.882632,-0.138493 1.169956,-0.413412 0.286286,-0.272851 0.429948,-0.643888 0.429948,-1.112077 v -1.405599 l 0.227375,0.173633 c -0.14056,0.345199 -0.41548,0.623218 -0.822688,0.835091 -0.405144,0.212907 -0.874367,0.318327 -1.405601,0.318327 -0.618049,0 -1.163753,-0.14056 -1.637107,-0.421679 -0.47129,-0.283187 -0.839227,-0.677995 -1.10381,-1.182357 -0.264583,-0.504362 -0.396875,-1.087272 -0.396875,-1.748731 z m 2.054655,-0.05374 c 0,0.317293 0.06615,0.598413 0.198438,0.843359 0.132291,0.24288 0.312127,0.434082 0.54157,0.574642 0.22841,0.14056 0.492993,0.21084 0.79375,0.21084 0.307989,0 0.579808,-0.06718 0.814419,-0.202572 0.233578,-0.137459 0.414444,-0.327628 0.541571,-0.570507 0.12919,-0.241846 0.194303,-0.5271 0.194303,-0.855762 0,-0.327629 -0.06511,-0.607715 -0.194303,-0.839225 -0.127127,-0.233578 -0.307993,-0.417546 -0.541571,-0.549838 -0.234611,-0.134358 -0.510564,-0.202571 -0.826823,-0.202571 -0.300757,0 -0.566374,0.06821 -0.797884,0.202571 -0.229443,0.132292 -0.407211,0.318327 -0.533301,0.558106 -0.127124,0.237711 -0.190169,0.514697 -0.190169,0.830957 z m 7.936464,3.658691 c -0.33693,0 -0.62425,-0.117822 -0.86403,-0.3514 -0.23771,-0.233577 -0.35553,-0.514697 -0.35553,-0.843359 0,-0.335897 0.11782,-0.620117 0.35553,-0.851627 0.23978,-0.233578 0.5271,-0.3514 0.86403,-0.3514 0.32453,0 0.60875,0.117822 0.85163,0.3514 0.24185,0.23151 0.3638,0.51573 0.3638,0.851627 0,0.328662 -0.12195,0.609782 -0.3638,0.843359 -0.24288,0.233578 -0.5271,0.3514 -0.85163,0.3514 z m 0,0"
       style="fill:#187283;fill-opacity:1;fill-rule:nonzero;stroke:none;stroke-width:0.352778" />
    <path
       d="M 0,0 C 1.81,8.19 9.87,13.37 18.01,11.57 16.2,3.38 8.14,-1.79 0,0"
       style="fill:#a8dee5;fill-opacity:1;fill-rule:nonzero;stroke:none"
       transform="matrix(0.35277776,0,0,-0.35277776,17.431378,26.027414)" />
    <path
       d="M 0,0 C 5.57,-5.57 6.93,-19.22 0.05,-19.22 -6.56,-19.22 -5.54,-5.54 0,0"
       style="fill:#a8dee5;fill-opacity:1;fill-rule:nonzero;stroke:none"
       transform="matrix(0.35277776,0,0,-0.35277776,17.04334,12.770024)" />
    <path
       d="M 0,0 C -8.14,-1.8 -16.2,3.38 -18.01,11.56 -9.87,13.36 -1.81,8.18 0,0"
       style="fill:#a8dee5;fill-opacity:1;fill-rule:nonzero;stroke:none"
       transform="matrix(0.35277776,0,0,-0.35277776,17.156211,24.309384)" />
    <path
       d="M 0,0 C 5.763,-0.371 11.165,3.101 13.247,8.524 10.448,8.719 7.664,8.002 5.25,6.451 2.829,4.896 1.012,2.648 0,0 m 0.847,-3.726 c -1.197,0 -2.41,0.128 -3.625,0.396 l -1.808,0.397 0.399,1.808 c 0.982,4.44 3.623,8.236 7.437,10.688 3.819,2.453 8.357,3.262 12.778,2.288 l 1.805,-0.4 -0.399,-1.805 C 15.679,1.706 8.633,-3.726 0.847,-3.726"
       style="fill:#187283;fill-opacity:1;fill-rule:nonzero;stroke:none"
       transform="matrix(0.35277776,0,0,-0.35277776,18.271457,25.489532)" />
    <path
       d="M 0,0 C 2.084,-5.425 7.477,-8.878 13.245,-8.517 11.16,-3.093 5.765,0.376 0,0 m 12.384,-12.243 c -7.778,0 -14.815,5.426 -16.572,13.365 l -0.4,1.806 1.806,0.399 C 6.34,5.341 15.405,-0.474 17.433,-9.639 l 0.399,-1.805 -1.805,-0.4 c -1.221,-0.269 -2.441,-0.399 -3.643,-0.399"
       style="fill:#187283;fill-opacity:1;fill-rule:nonzero;stroke:none"
       transform="matrix(0.35277776,0,0,-0.35277776,11.6433,20.768026)" />
    <path
       d="m 0,0 c -2.563,-3.841 -3.371,-9.739 -2.12,-12.759 0.626,-1.51 1.485,-1.704 2.163,-1.704 0.728,0 1.644,0.193 2.267,1.699 C 3.541,-9.792 2.648,-3.889 0,0 m 0.043,-18.16 c -2.533,0 -4.514,1.415 -5.579,3.986 -2.133,5.15 -0.082,14.087 4.222,18.391 L -0.007,5.524 1.301,4.217 C 5.679,-0.161 7.83,-9.102 5.727,-14.18 4.663,-16.747 2.645,-18.16 0.043,-18.16"
       style="fill:#187283;fill-opacity:1;fill-rule:nonzero;stroke:none"
       transform="matrix(0.35277776,0,0,-0.35277776,17.045695,13.796184)" />
    <path
       d="m 0,0 v 3.805 c 7.895,0 15.511,3.309 20.897,9.08 5.459,5.848 8.16,13.49 7.605,21.516 -0.977,14.125 -12.358,25.506 -26.472,26.474 -8.034,0.554 -15.676,-2.148 -21.527,-7.609 -5.771,-5.387 -9.081,-13.002 -9.081,-20.894 0,-8.37 3.657,-16.292 10.033,-21.733 1.235,-1.06 2.723,-1.789 4.306,-2.114 1.138,-0.235 1.686,-0.26 1.869,-0.26 6.219,0 11.278,5.058 11.278,11.277 l -0.19,17.97 3.803,0.041 0.19,-17.991 C 2.711,11.226 -4.054,4.46 -12.37,4.46 c -0.663,0 -1.549,0.114 -2.636,0.34 -2.21,0.452 -4.291,1.471 -6.013,2.949 -7.22,6.162 -11.363,15.138 -11.363,24.623 0,8.942 3.75,17.571 10.289,23.674 6.631,6.188 15.291,9.254 24.384,8.624 C 18.289,63.573 31.189,50.673 32.297,34.663 32.925,25.573 29.864,16.917 23.678,10.29 17.576,3.751 8.945,0 0,0"
       style="fill:#187283;fill-opacity:1;fill-rule:nonzero;stroke:none"
       transform="matrix(0.35277776,0,0,-0.35277776,16.979893,32.896843)" />
  </g>
</svg>
